<svg xmlns="http://www.w3.org/2000/svg" version="1.1" xmlns:xlink="http://www.w3.org/1999/xlink" xmlns:svgjs="http://svgjs.com/svgjs" width="1440" height="560" preserveAspectRatio="none" viewBox="0 0 1440 560"><g mask="url(&quot;#SvgjsMask1001&quot;)" fill="none"><rect width="1440" height="560" x="0" y="0" fill="rgba(0, 139, 139, 1)"></rect><path d="M0,564.408C122.102,565.522,247.999,609.588,358.852,558.385C475.44,504.533,578.183,403.803,614.429,280.6C649.531,161.286,593.831,36.365,546.235,-78.537C507.294,-172.546,437.172,-244.355,366.608,-317.668C299.704,-387.178,235.311,-460.168,145.355,-495.035C50.617,-531.755,-51.796,-533.478,-152.337,-518.811C-265.252,-502.339,-401.203,-498.045,-468.033,-405.553C-535.187,-312.613,-458.163,-181.672,-477.589,-68.667C-497.851,49.201,-606.802,149.186,-583.563,266.504C-559.379,388.595,-465.523,495.286,-354.669,551.876C-247.129,606.774,-120.737,563.307,0,564.408" fill="#006f6f"></path><path d="M1440 855.2139999999999C1498.24 851.775 1556.164 848.121 1608.164 821.669 1663.941 793.296 1716.781 755.098 1745.804 699.656 1775.5720000000001 642.7909999999999 1782.259 575.556 1769.98 512.556 1758.031 451.25 1716.507 402.91999999999996 1678.333 353.483 1637.929 301.158 1604.041 235.933 1541.002 216.01999999999998 1477.714 196.02800000000002 1407.579 218.56900000000002 1348.796 249.38600000000002 1296.04 277.044 1273.216 336.91499999999996 1230.742 378.677 1183.288 425.334 1106.951 446.172 1084.819 508.933 1061.968 573.732 1082.599 647.785 1114.356 708.716 1145.268 768.0260000000001 1197.577 814.87 1258.571 842.309 1315.005 867.697 1378.226 858.861 1440 855.2139999999999" fill="#00a7a7"></path></g><defs><mask id="SvgjsMask1001"><rect width="1440" height="560" fill="#ffffff"></rect></mask></defs></svg>